<svg xmlns="http://www.w3.org/2000/svg" width="44" height="75" version="1">
  <g stroke="#000">
    <path d="M15.73 63.346c-.395 2.114 1.81 6.503 6.246 6.646 5.363.174 8.79-3.93 7.193-10.624l-8.006-36.945c-.953-4.398-.238-6.784.27-8.205 1.36-3.793 4.75-5.357 5.576-4.143.47.693 1.61 3.935-1.633 9.74-2.53 4.53-14.305 10.466-15.17 21.092-.747 9.24 8.925 16.065 17.274 13.382 5.544-1.782 8.4-10.194 4.97-14.533-9.054-11.45-23.574 6.074-9.508 10.875-1.53-1.204-2.572-2.135-2.766-3.274-1.89-11.09 14.783-8.16 10.29 2.358-1.847 4.326-9.308 5.163-13.558 1.304-3.56-3.233-5.14-9.46-1.178-13.932 5.366-6.055 11.7-11.49 13.382-19.78 1.99-9.802-4.506-17.444-8.612-7.802-1.378 3.235-1.892 6.483-.572 12.707l8 37.73c.57 2.703.188 6.42-2.333 8.128-1.25.848-5.668 1.43-6.75-.59" stroke-width=".101028"/>
    <path d="M15.67 63.664a3.77 3.836 1.075 1 1 7.54.14 3.77 3.836 1.075 1 1-7.54-.14z" stroke-width=".10087524"/>
  </g>
</svg>
